<svg width="32" height="32" viewBox="0 0 32 32" fill="none" xmlns="http://www.w3.org/2000/svg">
<g clip-path="url(#clip0_1_2)">
<g filter="url(#filter0_d_1_2)">
<rect x="2" y="2" width="28" height="28" rx="2" fill="#38314B"/>
</g>
<path d="M18.8397 17.0717V15.5621C18.8397 13.7875 18.8055 11.7017 18.7372 9.30474C18.7235 8.89757 17.9755 8.62484 16.4931 8.48656C16.3974 8.21767 16.3496 7.97183 16.3496 7.74904C16.3496 7.61076 16.3974 7.37644 16.4931 7.04609C17.5314 7.09219 18.5732 7.11524 19.6184 7.11524C20.6705 7.11524 21.7498 7.09219 22.8565 7.04609C22.9522 7.37644 23 7.61076 23 7.74904C23 7.97183 22.9522 8.21767 22.8565 8.48656C21.4424 8.6402 20.7286 8.91293 20.7149 9.30474C20.6261 10.9257 20.5817 13.2958 20.5817 16.4149C20.5817 19.9334 20.6261 22.7798 20.7149 24.9539L19.8746 24.977L10.1501 11.598C10.1501 11.7362 10.1467 11.9898 10.1398 12.3585C10.133 12.7196 10.1296 13 10.1296 13.1997C10.1296 16.9104 10.174 20.0717 10.2628 22.6837C10.2765 23.0986 11.0245 23.3752 12.5069 23.5134C12.6026 23.7823 12.6504 24.0282 12.6504 24.251C12.6504 24.42 12.6026 24.6697 12.5069 25C11.4549 24.9539 10.4131 24.9309 9.38156 24.9309C8.32952 24.9309 7.25015 24.9539 6.14346 25C6.04782 24.6697 6 24.42 6 24.251C6 24.0282 6.04782 23.7823 6.14346 23.5134C7.55756 23.3598 8.27145 23.0832 8.28511 22.6837C8.36709 21.0704 8.40808 18.7042 8.40808 15.5851C8.40808 13.1959 8.38075 11.064 8.3261 9.1895C7.88206 8.7977 7.20575 8.56338 6.29717 8.48656C6.1947 8.27913 6.14346 8.04097 6.14346 7.77209C6.14346 7.48784 6.20836 7.23047 6.33816 7C7.76592 7.07682 9.56942 7.11524 11.7486 7.11524L18.8397 17.0717ZM20.1615 16.4149C20.1615 14.0871 20.2059 11.717 20.2948 9.30474C20.3221 8.61332 21.077 8.19078 22.5594 8.03713C22.614 7.90653 22.614 7.72599 22.5594 7.49552C21.2682 7.54161 20.3528 7.56466 19.8131 7.56466C18.9592 7.56466 17.9857 7.54161 16.8927 7.49552C16.8381 7.72599 16.8381 7.90653 16.8927 8.03713C18.3888 8.19078 19.1437 8.61332 19.1573 9.30474C19.2256 11.7017 19.2598 13.7875 19.2598 15.5621C19.2598 16.5992 19.2461 17.9974 19.2188 19.7567L10.3858 7.58771C8.8487 7.58771 7.57464 7.55698 6.56359 7.49552C6.50894 7.6799 6.50894 7.86044 6.56359 8.03713C7.44485 8.09859 8.17239 8.41357 8.74623 8.98207C8.80088 10.8489 8.82821 13.0499 8.82821 15.5851C8.82821 17.9129 8.78722 20.2791 8.70524 22.6837C8.67792 23.3828 7.92305 23.8092 6.44063 23.9629C6.38598 24.0858 6.38598 24.2663 6.44063 24.5045C7.72493 24.4584 8.64035 24.4353 9.18686 24.4353C10.0408 24.4353 11.0143 24.4584 12.1073 24.5045C12.1619 24.2663 12.1619 24.0858 12.1073 23.9629C10.6112 23.8092 9.85634 23.3828 9.84268 22.6837C9.77436 20.2945 9.74021 18.2125 9.74021 16.4379C9.74021 14.4097 9.7607 12.4008 9.80169 10.411H9.90416L20.0796 24.5045L20.2743 24.4814C20.1991 22.6761 20.1615 19.9872 20.1615 16.4149Z" fill="#DADADA"/>
<path d="M28.3562 18.9786L21.9235 16.9762C21.6698 16.8972 21.4023 17.0315 21.3261 17.2762L21.2342 17.5716C21.158 17.8163 21.302 18.0787 21.5557 18.1577C21.033 19.837 21.5685 21.5583 22.7659 22.4224C21.2896 22.4543 19.8717 23.5675 19.349 25.2468C19.0952 25.1678 18.8277 25.3021 18.7516 25.5468L18.6596 25.8422C18.5835 26.0869 18.7274 26.3493 18.9812 26.4283L25.4139 28.4307C25.6676 28.5097 25.9351 28.3754 26.0113 28.1307L26.1032 27.8353C26.1794 27.5906 26.0354 27.3282 25.7817 27.2492C26.3044 25.5699 25.7689 23.8486 24.5715 22.9845C26.0478 22.9527 27.4657 21.8395 27.9884 20.1601C28.2422 20.2391 28.5096 20.1048 28.5858 19.8601L28.6778 19.5647C28.7539 19.32 28.61 19.0576 28.3562 18.9786ZM24.7121 25.6203L21.1542 24.5127C21.7497 23.7505 22.6113 23.3463 23.3929 23.5896C24.1744 23.8329 24.6545 24.6545 24.7121 25.6203ZM26.1836 20.8943L22.6253 19.7867C22.6014 19.3853 22.6503 18.9591 22.781 18.5391L26.7631 19.7787C26.6321 20.1997 26.4306 20.5781 26.1836 20.8943Z" fill="#DADADA"/>
</g>
<defs>
<filter id="filter0_d_1_2" x="0" y="0" width="32" height="32" filterUnits="userSpaceOnUse" color-interpolation-filters="sRGB">
<feFlood flood-opacity="0" result="BackgroundImageFix"/>
<feColorMatrix in="SourceAlpha" type="matrix" values="0 0 0 0 0 0 0 0 0 0 0 0 0 0 0 0 0 0 127 0" result="hardAlpha"/>
<feMorphology radius="1" operator="dilate" in="SourceAlpha" result="effect1_dropShadow_1_2"/>
<feOffset/>
<feGaussianBlur stdDeviation="0.5"/>
<feComposite in2="hardAlpha" operator="out"/>
<feColorMatrix type="matrix" values="0 0 0 0 0 0 0 0 0 0 0 0 0 0 0 0 0 0 0.25 0"/>
<feBlend mode="normal" in2="BackgroundImageFix" result="effect1_dropShadow_1_2"/>
<feBlend mode="normal" in="SourceGraphic" in2="effect1_dropShadow_1_2" result="shape"/>
</filter>
<clipPath id="clip0_1_2">
<rect width="32" height="32" fill="white"/>
</clipPath>
</defs>
</svg>
